<?xml version="1.0" standalone="no"?>
<!DOCTYPE svg PUBLIC "-//W3C//DTD SVG 20010904//EN"
 "http://www.w3.org/TR/2001/REC-SVG-20010904/DTD/svg10.dtd">
<svg version="1.0" xmlns="http://www.w3.org/2000/svg"
 width="128.000000pt" height="28.000000pt" viewBox="0 0 128.000000 28.000000"
 preserveAspectRatio="xMidYMid meet">

<g transform="translate(0.000000,28.000000) scale(0.100000,-0.100000)"
fill="#000000" stroke="none">
<path d="M670 199 c0 -14 -5 -19 -14 -16 -19 7 -39 -17 -34 -40 2 -12 13 -19
36 -20 32 -1 32 -1 32 48 0 27 -4 49 -10 49 -5 0 -10 -9 -10 -21z m0 -50 c0
-5 -4 -9 -10 -9 -5 0 -10 7 -10 16 0 8 5 12 10 9 6 -3 10 -10 10 -16z"/>
<path d="M710 169 l0 -50 33 3 c27 2 33 8 35 31 3 26 -4 32 -35 28 -7 -1 -13
7 -13 19 0 11 -4 20 -10 20 -5 0 -10 -23 -10 -51z m41 -22 c-13 -13 -26 -3
-16 12 3 6 11 8 17 5 6 -4 6 -10 -1 -17z"/>
<path d="M993 212 c-12 -8 -16 -24 -14 -64 1 -35 21 -37 21 -3 0 14 5 25 11
25 8 0 8 5 -1 15 -9 10 -9 15 -1 15 6 0 11 5 11 10 0 12 -10 13 -27 2z"/>
<path d="M212 198 c-15 -15 -15 -51 0 -66 15 -15 58 -16 58 -2 0 6 -9 10 -19
10 -20 0 -35 25 -25 41 3 5 14 9 25 9 10 0 19 5 19 10 0 14 -43 13 -58 -2z"/>
<path d="M885 174 c-23 -56 -21 -63 16 -41 17 10 23 10 26 0 3 -7 11 -13 20
-13 14 0 13 10 -8 68 -13 33 -37 27 -54 -14z m35 -5 c0 -11 -4 -18 -10 -14 -5
3 -7 12 -3 20 7 21 13 19 13 -6z"/>
<path d="M1090 200 c0 -5 5 -10 10 -10 6 0 10 5 10 10 0 6 -4 10 -10 10 -5 0
-10 -4 -10 -10z"/>
<path d="M357 188 c-6 -20 13 -68 28 -68 8 0 12 11 9 33 -1 17 -3 35 -3 40 -1
12 -29 8 -34 -5z"/>
<path d="M299 179 c-11 -7 -10 -9 6 -9 18 -1 18 -2 -2 -10 -34 -14 -29 -39 7
-38 26 1 30 5 30 28 0 30 -19 43 -41 29z"/>
<path d="M425 176 c-25 -18 -11 -56 21 -56 13 0 24 5 24 11 0 5 -4 8 -9 4 -5
-3 -12 -1 -16 5 -3 5 3 10 14 10 26 0 27 16 2 29 -13 7 -23 6 -36 -3z"/>
<path d="M556 174 c-21 -20 -4 -54 26 -54 21 0 21 0 2 15 -19 14 -18 14 4 15
27 0 29 16 3 30 -15 7 -23 6 -35 -6z"/>
<path d="M1145 177 c-23 -18 -16 -51 13 -55 12 -2 22 1 22 7 0 6 -7 11 -15 11
-20 0 -19 17 1 28 10 5 12 12 7 15 -6 4 -18 1 -28 -6z"/>
<path d="M1210 180 c-12 -8 -12 -10 5 -10 18 -1 18 -2 -3 -11 -25 -9 -26 -29
-2 -37 9 -3 11 1 7 12 -4 9 -2 16 3 16 6 0 10 -7 10 -15 0 -8 7 -15 15 -15 20
0 19 34 -1 54 -18 19 -15 18 -34 6z"/>
<path d="M490 150 c0 -16 5 -30 10 -30 6 0 10 5 10 12 0 6 7 20 17 30 15 17
15 18 -10 18 -23 0 -27 -4 -27 -30z"/>
<path d="M802 149 c8 -24 8 -33 -3 -40 -17 -10 -5 -23 15 -16 17 7 50 77 40
86 -3 3 -12 -3 -20 -13 -12 -17 -14 -18 -14 -3 0 9 -7 17 -14 17 -12 0 -13 -6
-4 -31z"/>
<path d="M1030 150 c0 -16 5 -30 10 -30 6 0 10 5 10 12 0 6 7 20 17 30 15 17
15 18 -10 18 -23 0 -27 -4 -27 -30z"/>
<path d="M1090 150 c0 -16 5 -30 10 -30 6 0 10 14 10 30 0 17 -4 30 -10 30 -5
0 -10 -13 -10 -30z"/>
</g>
</svg>
