<svg width="24" height="24" viewBox="0 0 24 24" fill="none" xmlns="http://www.w3.org/2000/svg">
<path d="M0 12C0 18.6265 5.37215 24 11.997 24H23.994V13.4759H17.9112C17.4595 15.506 15.9719 17.1446 14.0386 17.8133C13.8158 17.8916 13.5809 17.9578 13.346 18.006C12.9365 18.0964 12.5149 18.1386 12.0813 18.1386C11.6718 18.1386 11.2803 18.0964 10.8949 18.0181C10.6058 17.9578 10.3287 17.8795 10.0577 17.7831C7.75709 16.9578 6.1069 14.753 6.1069 12.1627V10.8554H23.9398C23.3676 4.77108 18.2424 0 11.997 0C5.37215 0 0 5.37349 0 12Z" fill="#FFD700"/>
<path d="M12.786 5.69282C12.8582 5.88559 12.5571 6.33138 12.1114 6.33138C11.6658 6.33138 11.3646 5.88559 11.4369 5.69282C11.5513 5.39162 12.6776 5.39162 12.786 5.69282Z" fill="#55A603"/>
<path d="M17.9112 10.8615C17.3872 8.22896 14.9481 6.23499 12.0091 6.23499C9.07607 6.23499 6.6309 8.22896 6.10693 10.8615H17.9112Z" fill="#F29727"/>
</svg>
